<?xml version="1.0" encoding="utf-8"?>
<!-- Generator: Adobe Illustrator 28.4.1, SVG Export Plug-In . SVG Version: 6.00 Build 0)  -->
<svg version="1.1" id="Layer_1" xmlns="http://www.w3.org/2000/svg" xmlns:xlink="http://www.w3.org/1999/xlink" x="0px" y="0px"
	 viewBox="0 0 253 139" style="enable-background:new 0 0 253 139;" xml:space="preserve">
<style type="text/css">
	.st0{fill:#FFFFFF;}
	.st1{fill-rule:evenodd;clip-rule:evenodd;fill:#C10230;}
	.st2{fill:#C10230;}
</style>
<path class="st0" d="M120.5,2c57.7-8.1,106.6,15.3,109.2,52.3c2.5,37-42.2,73.5-100,81.7C72,144.1,23.1,120.7,20.6,83.7
	S62.8,10.2,120.5,2z"/>
<path class="st1" d="M129,131.1c54.7-7.7,97.2-41.7,94.8-75.9c-2.4-34.2-48.6-55.7-103.3-48c-1.3,0.2-2.6,0.4-3.9,0.6
	c48.9-5.6,89.6,14,91.7,44.8c2.2,31.6-37,63-87.6,70.1c-49.3,6.9-91.2-11.8-95.2-42c0,0.8,0,1.6,0.1,2.4
	C28,117.3,74.3,138.8,129,131.1z"/>
<path class="st2" d="M77.3,62.1c-0.1,1.3-0.7,2.3-1.6,3c1.1,0.7,1.6,1.8,1.5,3.2c-0.1,1.3-0.6,2.3-1.5,3.2c-0.9,0.8-2.2,1.3-3.9,1.5
	l-6.1,0.5l1.3-14.9l5.6-0.5c1.5-0.1,2.6,0.2,3.5,0.9C77,59.8,77.4,60.8,77.3,62.1z M72.4,61.6l-1.9,0.2l-0.2,2.3l1.8-0.2
	c0.4,0,0.7-0.2,0.9-0.4c0.3-0.2,0.4-0.5,0.4-0.9c0-0.4-0.1-0.6-0.3-0.8C73.1,61.6,72.8,61.5,72.4,61.6z M73.5,68.2
	c0-0.4-0.1-0.7-0.3-0.9c-0.2-0.2-0.5-0.3-0.9-0.3L70,67.3l-0.2,2.5l2.3-0.2c0.4,0,0.7-0.2,1-0.4C73.3,68.9,73.5,68.6,73.5,68.2z
	 M81,60.8c-0.5,0-1-0.1-1.4-0.5c-0.4-0.4-0.5-0.8-0.5-1.4c0-0.5,0.3-1,0.7-1.5c0.4-0.4,0.9-0.7,1.5-0.7c0.6,0,1,0.1,1.4,0.5
	c0.4,0.4,0.5,0.8,0.5,1.4c0,0.6-0.3,1.1-0.7,1.5C82.1,60.5,81.6,60.8,81,60.8z M78.2,72.5l0.9-10.6l3.5-0.3l-0.9,10.6L78.2,72.5z
	 M91.9,63.7c-0.1,1-0.6,1.8-1.4,2.3c1,0.5,1.4,1.3,1.3,2.5c-0.1,0.9-0.5,1.7-1.3,2.3c-0.8,0.6-1.8,1-3.2,1.1
	c-2.3,0.2-3.8-0.5-4.5-2.1l2.8-1.7c0.3,0.7,0.9,1,1.8,1c0.7-0.1,1-0.3,1.1-0.8c0-0.2-0.1-0.4-0.2-0.5c-0.1-0.1-0.3-0.1-0.6-0.1
	l-1.3,0.1l0.2-2.7l1-0.1c0.6,0,0.9-0.3,0.9-0.7c0-0.2-0.1-0.4-0.2-0.5c-0.2-0.1-0.4-0.2-0.6-0.1c-0.7,0.1-1.2,0.5-1.6,1.3l-2.6-1.4
	c1-1.7,2.5-2.6,4.5-2.8c1.2-0.1,2.2,0.1,2.9,0.8C91.7,62.1,92,62.9,91.9,63.7z M98.9,63.1c1.2-0.1,2.1,0.2,2.8,0.9
	c0.7,0.7,1,1.6,0.9,2.8c-0.2,2.4-1.7,3.7-4.4,4L93,71.2L94,60.5l3.5-0.3l-0.3,3L98.9,63.1z M99.3,66.8c0-0.3,0-0.5-0.2-0.6
	c-0.2-0.1-0.4-0.2-0.6-0.2l-1.5,0.1l-0.2,1.7l1.5-0.1c0.3,0,0.5-0.1,0.7-0.3C99.1,67.3,99.3,67.1,99.3,66.8z M116.1,58.6l-0.9,10.6
	l-3.3,0.3l0.4-5.1l-2.5,3.7l-0.4,0l-1.9-3.3l-0.4,5.1l-3.4,0.3l0.9-10.6l3.4-0.3l1.9,3.7l2.7-4.1L116.1,58.6z M125.6,57.8l2.7-0.2
	l-0.9,10.6l-3.4,0.3l0.4-4.8l-4.5,5.2l-2.7,0.2l0.9-10.6l3.4-0.3l-0.4,4.8L125.6,57.8z M139.5,67.4c-1.7,0.1-3-0.3-4-1.3
	c-1-1-1.5-2.4-1.4-4c0.1-1.6,0.7-2.9,1.8-4c1.1-1.1,2.4-1.7,4-1.9c1.1-0.1,2.1,0.1,2.8,0.5c0.8,0.4,1.4,1,1.9,1.8l-3,1.9
	c-0.4-0.6-0.9-0.9-1.7-0.9c-0.6,0.1-1.1,0.3-1.6,0.7c-0.4,0.4-0.7,1-0.7,1.6c-0.1,0.6,0.1,1.1,0.4,1.5c0.4,0.4,0.8,0.5,1.4,0.5
	c0.8-0.1,1.4-0.5,1.9-1.2l2.9,1.5c-0.5,0.9-1.1,1.7-1.9,2.2C141.4,67,140.5,67.3,139.5,67.4z M154.9,58.4c-0.1,1-0.5,1.7-1.3,2.2
	c0.9,0.5,1.3,1.3,1.3,2.3c-0.2,1.9-1.5,3-3.9,3.2l-5.8,0.5L146,56l5.5-0.5c1.1-0.1,1.9,0.1,2.5,0.7
	C154.7,56.8,154.9,57.5,154.9,58.4z M150.8,58.2l-1.6,0.1l-0.1,1.4l1.6-0.1c0.6,0,0.9-0.3,0.9-0.8C151.6,58.3,151.3,58.1,150.8,58.2
	z M151.4,62.7c0-0.5-0.2-0.7-0.8-0.6l-1.9,0.2l-0.1,1.4l1.9-0.2C151.1,63.4,151.4,63.1,151.4,62.7z M161.3,65.5
	c-1.2,0.1-2.2-0.1-3.1-0.6c-0.9-0.5-1.5-1.2-1.8-2.1c-0.4-0.9-0.5-1.8-0.4-2.7c0.2-1.5,0.7-2.8,1.8-3.9c1-1.1,2.4-1.7,4.1-1.9
	c1.7-0.1,3,0.3,4,1.5c1,1.1,1.4,2.4,1.3,3.9c-0.1,1.4-0.7,2.7-1.8,3.9C164.2,64.7,162.9,65.3,161.3,65.5z M161.3,62.1
	c0.6-0.1,1.1-0.3,1.6-0.7c0.4-0.4,0.7-1,0.7-1.6c0.1-0.7-0.1-1.2-0.5-1.5c-0.3-0.4-0.8-0.5-1.4-0.5c-0.6,0.1-1.1,0.3-1.5,0.7
	c-0.4,0.4-0.7,1-0.7,1.6c-0.1,0.7,0.1,1.2,0.4,1.5C160.2,62,160.7,62.2,161.3,62.1z M178.7,52.8c1.2-0.1,2.2,0.1,3,0.6
	c0.8,0.5,1.4,1.2,1.8,2c0.4,0.8,0.5,1.7,0.4,2.7c-0.1,1.5-0.7,2.8-1.7,3.9c-1.1,1.1-2.4,1.8-4,1.9c-1.4,0.1-2.5-0.1-3.4-0.8
	c-0.9-0.7-1.4-1.6-1.7-2.7l-1.2,0.1l-0.3,3.7l-3.5,0.3l0.9-10.6l3.5-0.3l-0.3,3.7l1-0.1c0.4-1.2,1-2.2,2-3
	C176.2,53.4,177.4,52.9,178.7,52.8z M180.5,58.2c0.1-0.7-0.1-1.2-0.5-1.5s-0.8-0.5-1.5-0.5c-0.6,0.1-1.1,0.3-1.6,0.7
	c-0.4,0.4-0.7,1-0.7,1.6c0,0.7,0.1,1.2,0.5,1.5c0.4,0.4,0.8,0.5,1.5,0.5c0.6-0.1,1.1-0.3,1.6-0.7C180.2,59.4,180.5,58.9,180.5,58.2z
	 M99.8,92c-1.7,0.2-3.1-0.3-4.1-1.3c-1-1-1.4-2.4-1.3-4.1c0.2-1.8,0.6-3.3,1.2-4.3c0.6-1.1,1.7-2,3.2-2.9c0.2-0.1,0.5-0.3,0.9-0.5
	c0.4-0.2,0.6-0.4,0.8-0.4c0.1-0.1,0.3-0.2,0.6-0.3c0.3-0.2,0.5-0.3,0.6-0.4c0.1-0.1,0.2-0.2,0.4-0.3c0.2-0.1,0.3-0.3,0.4-0.4
	c0.1-0.1,0.2-0.2,0.3-0.4c0.1-0.2,0.2-0.3,0.3-0.5l2.8,1.4c-0.3,0.8-0.7,1.5-1.4,2c-0.6,0.5-1.5,1.1-2.7,1.6
	c-0.9,0.4-1.6,0.8-2.1,1.1c-0.4,0.3-0.7,0.7-1,1.1c0.8-0.7,1.7-1.1,2.7-1.1c1.1-0.1,2.1,0.3,3,1.1c0.9,0.8,1.3,2,1.1,3.4
	c-0.1,1.4-0.7,2.6-1.7,3.6C102.7,91.3,101.4,91.8,99.8,92z M99.8,88.9c0.6-0.1,1.1-0.3,1.5-0.7c0.4-0.4,0.6-0.9,0.7-1.4
	c0-0.6-0.1-1-0.5-1.3c-0.4-0.3-0.8-0.5-1.4-0.4c-0.5,0-1,0.3-1.5,0.6c-0.4,0.4-0.6,0.8-0.7,1.4c0,0.6,0.1,1,0.5,1.4
	C98.7,88.8,99.2,89,99.8,88.9z M114.6,79.8l3.5-0.3l-0.9,10.6l-3.5,0.3l0.1-0.8c-0.7,0.8-1.7,1.3-3,1.4c-1.5,0.1-2.7-0.3-3.5-1.4
	c-0.8-1.1-1.2-2.4-1-3.9c0.1-1.5,0.6-2.8,1.6-4c0.9-1.1,2.1-1.8,3.6-1.9c1.3-0.1,2.3,0.3,3,1.2L114.6,79.8z M110.2,87.1
	c0.4,0.4,0.9,0.6,1.5,0.5c0.7-0.1,1.2-0.3,1.6-0.8c0.4-0.4,0.7-1,0.8-1.7l0-0.1c0.1-0.7-0.1-1.2-0.5-1.6c-0.4-0.4-0.9-0.6-1.5-0.5
	c-0.7,0.1-1.2,0.3-1.6,0.8c-0.4,0.5-0.7,1-0.7,1.7C109.7,86.2,109.8,86.7,110.2,87.1z M126.6,78.8l3.5-0.3l-0.9,10.6l-3.5,0.3
	l0.3-3.7l-3.1,0.3l-0.3,3.7l-3.5,0.3l0.9-10.6l3.5-0.3l-0.3,3.7l3.1-0.3L126.6,78.8z M142.1,77.4l-3.9,5.6l3.2,5l-3.8,0.3L135,84
	l-0.4,4.6l-3.5,0.3l0.9-10.6l3.5-0.3l-0.4,4.3l3-4.6L142.1,77.4z M149.8,76.7l4-0.3L149.4,87c-0.8,1.8-1.7,3.1-2.8,3.9
	c-1.1,0.8-2.4,1.2-4,1.2l0.3-3.3c0.8-0.1,1.3-0.2,1.7-0.4c0.4-0.2,0.7-0.6,1-1.1l-3.2-9.8l3.7-0.3l1.6,6L149.8,76.7z M155,81.4
	l-0.2-5.1l0.4-4.2l4.3-0.4l-0.4,4.2l-1.1,5.3L155,81.4z M155.9,87c-0.6,0.1-1.1-0.1-1.5-0.5c-0.4-0.4-0.6-0.9-0.5-1.5
	c0.1-0.6,0.3-1.1,0.7-1.6c0.5-0.5,1-0.7,1.6-0.8c0.6-0.1,1.1,0.1,1.5,0.5c0.4,0.4,0.6,0.9,0.5,1.5c-0.1,0.6-0.3,1.2-0.7,1.6
	C157.1,86.7,156.6,87,155.9,87z"/>
</svg>
