<?xml version="1.0" encoding="utf-8"?>
<!-- Generator: Adobe Illustrator 28.4.1, SVG Export Plug-In . SVG Version: 6.00 Build 0)  -->
<svg version="1.1" id="Layer_1" xmlns="http://www.w3.org/2000/svg" xmlns:xlink="http://www.w3.org/1999/xlink" x="0px" y="0px"
	 viewBox="0 0 120 80" style="enable-background:new 0 0 120 80;" xml:space="preserve">
<style type="text/css">
	.st0{fill:#FFFFFF;}
	.st1{fill-rule:evenodd;clip-rule:evenodd;fill:#C10230;}
	.st2{fill:#C10230;}
</style>
<g>
	<path class="st0" d="M57.4,1.7c33.1-4.6,61,8.8,62.5,29.9S95.7,73.7,62.6,78.3C29.6,83,1.6,69.6,0.1,48.4S24.3,6.3,57.4,1.7z"/>
	<path class="st1" d="M62.2,75.5c31.3-4.4,55.6-23.8,54.3-43.4C115.2,12.5,88.7,0.2,57.3,4.6c-0.7,0.1-1.5,0.2-2.2,0.3
		c28-3.2,51.3,8,52.5,25.7c1.2,18.1-21.2,36.1-50.1,40.1C29.3,74.7,5.3,64,3,46.7c0,0.5,0,0.9,0.1,1.4C4.4,67.6,30.9,79.9,62.2,75.5
		z"/>
	<path class="st2" d="M32.6,36.1c-0.1,0.7-0.4,1.3-0.9,1.7c0.6,0.4,0.9,1,0.9,1.8c0,0.7-0.3,1.3-0.9,1.8c-0.5,0.5-1.3,0.8-2.2,0.8
		L26,42.6l0.7-8.5l3.2-0.3c0.8-0.1,1.5,0.1,2,0.5C32.4,34.8,32.7,35.3,32.6,36.1z M29.8,35.7l-1.1,0.1l-0.1,1.3l1.1-0.1
		c0.2,0,0.4-0.1,0.5-0.2c0.1-0.1,0.2-0.3,0.2-0.5c0-0.2,0-0.4-0.2-0.5C30.2,35.8,30,35.7,29.8,35.7z M30.4,39.6c0-0.2,0-0.4-0.2-0.5
		c-0.1-0.1-0.3-0.2-0.5-0.1L28.5,39l-0.1,1.4l1.3-0.1c0.2,0,0.4-0.1,0.6-0.2C30.3,40,30.4,39.8,30.4,39.6z M34.7,35.3
		c-0.3,0-0.6-0.1-0.8-0.3c-0.2-0.2-0.3-0.5-0.3-0.8c0-0.3,0.2-0.6,0.4-0.8c0.2-0.3,0.5-0.4,0.8-0.4c0.3,0,0.6,0.1,0.8,0.3
		c0.2,0.2,0.3,0.5,0.3,0.8c0,0.3-0.1,0.6-0.4,0.9C35.3,35.1,35.1,35.3,34.7,35.3z M33.1,42l0.5-6.1l2-0.2l-0.5,6.1L33.1,42z M41,37
		c-0.1,0.6-0.3,1-0.8,1.3c0.6,0.3,0.8,0.8,0.8,1.4c0,0.5-0.3,1-0.7,1.3c-0.4,0.3-1,0.6-1.8,0.6c-1.3,0.1-2.2-0.3-2.6-1.2l1.6-1
		c0.2,0.4,0.5,0.6,1,0.5c0.4,0,0.6-0.2,0.6-0.5c0-0.1,0-0.2-0.1-0.3c-0.1-0.1-0.2-0.1-0.4-0.1l-0.7,0.1l0.1-1.5l0.6-0.1
		c0.3,0,0.5-0.2,0.5-0.4c0-0.1,0-0.2-0.1-0.3c-0.1-0.1-0.2-0.1-0.4-0.1c-0.4,0-0.7,0.3-0.9,0.7l-1.5-0.8c0.6-1,1.5-1.5,2.6-1.6
		c0.7-0.1,1.2,0.1,1.7,0.4C40.8,36.1,41,36.5,41,37z M45,36.6c0.7-0.1,1.2,0.1,1.6,0.5c0.4,0.4,0.6,0.9,0.5,1.6
		c-0.1,1.4-1,2.1-2.5,2.3l-3,0.3l0.5-6.1l2-0.2L44,36.7L45,36.6z M45.2,38.7c0-0.1,0-0.3-0.1-0.3c-0.1-0.1-0.2-0.1-0.4-0.1l-0.9,0.1
		l-0.1,1l0.9-0.1c0.2,0,0.3-0.1,0.4-0.2C45.1,39,45.2,38.9,45.2,38.7z M54.8,34l-0.5,6.1l-1.9,0.2l0.3-2.9l-1.5,2.1l-0.2,0l-1.1-1.9
		l-0.3,2.9l-1.9,0.2l0.5-6.1l1.9-0.2l1.1,2.1l1.5-2.3L54.8,34z M60.2,33.6l1.5-0.1l-0.5,6.1l-1.9,0.2l0.2-2.8l-2.6,3L55.5,40
		l0.5-6.1l1.9-0.2l-0.2,2.8L60.2,33.6z M68.2,39.1c-1,0.1-1.7-0.2-2.3-0.8C65.3,37.7,65,37,65.1,36c0.1-0.9,0.4-1.7,1-2.3
		c0.6-0.6,1.4-1,2.3-1.1c0.6-0.1,1.2,0,1.6,0.3c0.5,0.2,0.8,0.6,1.1,1.1l-1.7,1.1c-0.2-0.4-0.5-0.5-1-0.5c-0.4,0-0.7,0.2-0.9,0.4
		c-0.2,0.2-0.4,0.6-0.4,0.9c0,0.4,0.1,0.7,0.3,0.9c0.2,0.2,0.5,0.3,0.8,0.3c0.5,0,0.8-0.3,1.1-0.7l1.7,0.9c-0.3,0.5-0.6,0.9-1.1,1.3
		C69.3,38.8,68.8,39,68.2,39.1z M77,33.9c0,0.6-0.3,1-0.7,1.2c0.5,0.3,0.8,0.7,0.7,1.3c-0.1,1.1-0.8,1.7-2.2,1.8l-3.3,0.3l0.5-6.1
		l3.1-0.3c0.6-0.1,1.1,0.1,1.4,0.4C76.9,33,77.1,33.4,77,33.9z M74.7,33.8l-0.9,0.1l-0.1,0.8l0.9-0.1c0.3,0,0.5-0.2,0.5-0.4
		C75.1,33.9,75,33.8,74.7,33.8z M75.1,36.4c0-0.3-0.1-0.4-0.4-0.4l-1.1,0.1l-0.1,0.8l1.1-0.1C74.9,36.8,75,36.6,75.1,36.4z M80.7,38
		c-0.7,0.1-1.3-0.1-1.8-0.4c-0.5-0.3-0.8-0.7-1.1-1.2c-0.2-0.5-0.3-1-0.2-1.6c0.1-0.8,0.4-1.6,1-2.2c0.6-0.6,1.4-1,2.3-1.1
		c1-0.1,1.7,0.2,2.3,0.8c0.6,0.6,0.8,1.4,0.7,2.3c-0.1,0.8-0.4,1.6-1,2.2C82.4,37.5,81.6,37.9,80.7,38z M80.7,36.1
		c0.4,0,0.6-0.2,0.9-0.4c0.2-0.3,0.4-0.6,0.4-0.9c0-0.4-0.1-0.7-0.3-0.9c-0.2-0.2-0.5-0.3-0.8-0.3c-0.3,0-0.6,0.2-0.9,0.4
		c-0.2,0.3-0.4,0.6-0.4,0.9c0,0.4,0.1,0.7,0.2,0.9C80.1,36,80.3,36.1,80.7,36.1z M90.7,30.7c0.7-0.1,1.2,0.1,1.7,0.4
		c0.5,0.3,0.8,0.7,1,1.2c0.2,0.5,0.3,1,0.3,1.6c-0.1,0.8-0.4,1.6-1,2.2c-0.6,0.6-1.4,1-2.3,1.1c-0.8,0.1-1.4-0.1-1.9-0.5
		c-0.5-0.4-0.8-0.9-1-1.5l-0.7,0.1l-0.2,2.1l-2,0.2l0.5-6.1l2-0.2L87,33.3l0.6-0.1c0.2-0.7,0.6-1.3,1.1-1.7
		C89.2,31.1,89.9,30.8,90.7,30.7z M91.7,33.8c0-0.4-0.1-0.7-0.3-0.9s-0.5-0.3-0.8-0.3c-0.3,0-0.6,0.2-0.9,0.4
		c-0.2,0.3-0.4,0.6-0.4,0.9c0,0.4,0.1,0.7,0.3,0.9c0.2,0.2,0.5,0.3,0.8,0.3c0.3,0,0.6-0.2,0.9-0.4C91.5,34.5,91.7,34.2,91.7,33.8z
		 M45.5,53.1c-1,0.1-1.8-0.2-2.4-0.7c-0.6-0.6-0.8-1.4-0.7-2.4c0.1-1,0.3-1.9,0.7-2.5c0.4-0.6,1-1.2,1.8-1.6
		c0.1-0.1,0.3-0.2,0.5-0.3c0.2-0.1,0.4-0.2,0.4-0.2c0.1,0,0.2-0.1,0.3-0.2c0.2-0.1,0.3-0.2,0.3-0.2c0.1,0,0.1-0.1,0.2-0.2
		c0.1-0.1,0.2-0.2,0.2-0.2c0.1-0.1,0.1-0.1,0.2-0.2c0.1-0.1,0.1-0.2,0.2-0.3l1.6,0.8c-0.2,0.5-0.4,0.9-0.8,1.2
		c-0.4,0.3-0.9,0.6-1.5,0.9c-0.5,0.2-0.9,0.5-1.2,0.6c-0.2,0.2-0.4,0.4-0.5,0.6c0.4-0.4,1-0.6,1.6-0.7c0.6-0.1,1.2,0.2,1.7,0.6
		c0.5,0.5,0.7,1.1,0.7,1.9c-0.1,0.8-0.4,1.5-1,2.1C47.1,52.8,46.4,53.1,45.5,53.1z M45.5,51.4c0.3,0,0.6-0.2,0.8-0.4
		c0.2-0.2,0.4-0.5,0.4-0.8c0-0.3-0.1-0.6-0.3-0.7c-0.2-0.2-0.5-0.3-0.8-0.2c-0.3,0-0.6,0.1-0.8,0.4c-0.2,0.2-0.4,0.5-0.4,0.8
		c0,0.3,0.1,0.6,0.3,0.8C44.9,51.4,45.1,51.4,45.5,51.4z M53.9,46.2l2-0.2l-0.5,6.1l-2,0.2l0-0.5c-0.4,0.5-1,0.7-1.7,0.8
		c-0.9,0.1-1.5-0.2-2-0.8c-0.5-0.6-0.7-1.4-0.6-2.2c0.1-0.9,0.4-1.6,0.9-2.3c0.5-0.7,1.2-1,2.1-1.1c0.8-0.1,1.3,0.2,1.7,0.7
		L53.9,46.2z M51.4,50.4c0.2,0.2,0.5,0.3,0.9,0.3c0.4,0,0.7-0.2,0.9-0.4c0.3-0.3,0.4-0.6,0.4-1l0,0c0-0.4-0.1-0.7-0.3-0.9
		c-0.2-0.2-0.5-0.3-0.9-0.3c-0.4,0-0.7,0.2-0.9,0.4c-0.3,0.3-0.4,0.6-0.4,1C51.1,49.8,51.2,50.2,51.4,50.4z M60.8,45.6l2-0.2
		l-0.5,6.1l-2,0.2l0.2-2.1l-1.8,0.2l-0.2,2.1l-2,0.2l0.5-6.1l2-0.2l-0.2,2.1l1.8-0.2L60.8,45.6z M69.7,44.8L67.5,48l1.8,2.9
		l-2.2,0.2l-1.5-2.5l-0.2,2.6l-2,0.2l0.5-6.1l2-0.2l-0.2,2.5l1.7-2.6L69.7,44.8z M74.1,44.4l2.3-0.2l-2.5,6.1c-0.4,1-1,1.8-1.6,2.2
		c-0.6,0.5-1.4,0.7-2.3,0.7l0.2-1.9c0.4,0,0.8-0.1,1-0.3c0.2-0.1,0.4-0.3,0.5-0.7l-1.8-5.6l2.1-0.2l0.9,3.4L74.1,44.4z M77.1,47.1
		l-0.1-2.9l0.2-2.4l2.4-0.2L79.4,44l-0.7,3L77.1,47.1z M77.6,50.3c-0.3,0-0.6-0.1-0.8-0.3c-0.2-0.2-0.3-0.5-0.3-0.9
		c0-0.3,0.2-0.7,0.4-0.9c0.3-0.3,0.6-0.4,0.9-0.4c0.3,0,0.6,0.1,0.8,0.3c0.2,0.2,0.3,0.5,0.3,0.9c0,0.4-0.2,0.7-0.4,0.9
		C78.3,50.1,78,50.3,77.6,50.3z"/>
</g>
</svg>
