<?xml version="1.0" encoding="UTF-8"?><svg id="Layer_1" xmlns="http://www.w3.org/2000/svg" viewBox="0 0 121.968 75.158"><defs><style>.cls-1{fill-rule:evenodd;}.cls-1,.cls-2{fill:#c10230;}.cls-1,.cls-2,.cls-3{stroke-width:0px;}.cls-3{fill:#fff;}</style></defs><path class="cls-3" d="M57.719.996c33.631-4.727,62.357,7.821,64.161,28.025,1.803,20.204-23.998,40.415-57.63,45.141C30.618,78.889,1.893,66.342.089,46.137-1.714,25.933,24.087,5.723,57.719.996Z"/><path class="cls-1" d="M63.977,71.256c31.719-4.458,56.087-23.149,54.427-41.748C116.744,10.908,89.684-.556,57.965,3.902c-.432.061-.862.124-1.291.19,29.761-3.784,54.923,7.111,56.487,24.635,1.586,17.772-21.697,35.632-52.006,39.891-29.886,4.2-55.443-6.392-57.67-23.727.013.253.031.506.053.76,1.66,18.599,28.72,30.062,60.44,25.605Z"/><path class="cls-2" d="M33.139,33.531c-.052.714-.344,1.294-.876,1.741.614.403.901,1.026.861,1.87-.033.737-.31,1.353-.83,1.847-.52.494-1.269.784-2.249.87l-3.449.302.75-8.631,3.206-.28c.769-.067,1.405.114,1.907.543.502.421.728,1.001.678,1.739ZM30.457,33.093l-1.324.116-.135,1.529,1.324-.116c.243-.021.443-.108.601-.261.158-.152.247-.344.268-.574.022-.214-.03-.389-.156-.525-.126-.136-.319-.192-.578-.17ZM30.912,37.727c.173-.17.269-.378.288-.625.019-.246-.042-.437-.185-.571-.135-.143-.336-.203-.603-.18l-1.566.137-.149,1.653,1.566-.137c.267-.023.483-.116.649-.277ZM36.126,32.352c-.224.232-.491.361-.798.388-.308.027-.56-.057-.756-.252-.189-.204-.272-.457-.25-.761.023-.296.146-.563.37-.803.232-.24.498-.374.797-.4.299-.026.548.062.745.265.205.194.296.443.273.747-.022.304-.15.576-.381.816ZM33.818,39.529l.537-6.165,1.821-.159-.537,6.165-1.821.159ZM41.575,34.494c-.053.608-.306,1.067-.761,1.376.557.302.81.773.76,1.414-.051.535-.294.98-.727,1.336-.426.347-1.04.556-1.842.626-1.279.112-2.123-.3-2.531-1.235l1.496-.939c.177.433.544.625,1.103.577.47-.041.723-.222.76-.544.012-.14-.025-.243-.113-.308-.087-.066-.228-.09-.422-.073l-.862.075.133-1.553.656-.057c.38-.033.583-.19.607-.469.012-.148-.03-.254-.126-.319-.095-.065-.232-.09-.41-.074-.445.039-.789.302-1.032.788l-1.447-.73c.582-.989,1.42-1.531,2.513-1.627.712-.062,1.276.084,1.69.439.414.355.599.788.554,1.298ZM45.578,34.217c.672-.059,1.217.11,1.635.505.417.396.598.918.541,1.568-.126,1.357-.978,2.105-2.557,2.243l-2.841.249.537-6.165,1.821-.159-.156,1.849,1.02-.089ZM45.995,36.322c.01-.164-.034-.291-.132-.38-.098-.097-.236-.138-.414-.123l-1.032.09-.099,1.11,1.032-.09c.178-.016.323-.077.437-.185.12-.117.19-.257.208-.422ZM55.46,31.517l-.537,6.165-1.749.153.283-3.194-1.563,2.278-.219.019-1.168-2.027-.272,3.181-1.749.153.538-6.165,1.749-.153,1.141,2.274,1.664-2.519,1.882-.165ZM61.163,31.018l1.335-.117-.538,6.165-1.772.155.263-3.009-2.861,3.236-1.336.117.538-6.165,1.773-.155-.263,3.009,2.862-3.236ZM69.433,36.584c-.964.084-1.741-.17-2.331-.763-.59-.593-.854-1.365-.79-2.317.06-.903.404-1.675,1.033-2.317.629-.642,1.401-1.004,2.315-1.084.631-.055,1.183.043,1.654.296.47.244.827.597,1.071,1.056l-1.587,1.02c-.225-.421-.604-.608-1.138-.561-.405.035-.75.196-1.034.482-.286.278-.447.626-.484,1.046-.037.419.066.757.309,1.013.242.248.561.355.958.32.518-.045.919-.309,1.203-.79l1.551.806c-.263.537-.638.957-1.125,1.261-.488.304-1.023.481-1.605.532ZM78.314,31.365c-.05.551-.278.971-.685,1.259.507.298.739.751.694,1.359-.052.527-.263.953-.634,1.279-.364.317-.89.506-1.578.566l-3.278.287.538-6.165,3.036-.266c.599-.052,1.076.085,1.431.413.363.327.522.75.478,1.267ZM76.084,31.181l-1.142.1-.071.863,1.129-.099c.356-.031.546-.186.571-.466.031-.296-.132-.429-.488-.398ZM76.571,33.818c.012-.14-.029-.242-.125-.307-.087-.066-.212-.092-.374-.077l-1.336.117-.069.887,1.323-.116c.364-.032.558-.2.58-.503ZM82.169,35.47c-.712.062-1.323-.06-1.831-.366-.5-.315-.854-.721-1.06-1.216-.199-.505-.267-1.045-.204-1.622.098-.849.445-1.585,1.043-2.208.597-.631,1.378-.989,2.341-1.074.971-.085,1.735.203,2.29.864.555.653.793,1.419.715,2.299-.074.83-.421,1.575-1.04,2.232-.62.65-1.371,1.013-2.254,1.09ZM81.203,33.376c.225.241.536.345.932.31.397-.035.737-.195,1.022-.481.285-.294.444-.659.48-1.094.043-.436-.055-.774-.297-1.014-.234-.249-.549-.356-.946-.321-.397.035-.733.199-1.009.492-.269.285-.425.645-.468,1.081-.035.435.06.778.286,1.027ZM92.377,28.116c.648-.057,1.213.069,1.697.378.483.3.828.698,1.034,1.194.215.495.297,1.026.249,1.593-.074.83-.417,1.574-1.028,2.231-.612.649-1.36,1.012-2.242,1.089-.826.072-1.501-.093-2.026-.496-.525-.403-.857-.941-.998-1.614l-.801.07-.197,2.22-1.821.159.538-6.165,1.821-.159-.197,2.22.741-.065c.207-.712.591-1.312,1.151-1.802.56-.498,1.253-.783,2.079-.855ZM93.556,31.243c.044-.428-.055-.766-.297-1.014-.242-.248-.566-.354-.97-.319-.397.035-.737.199-1.021.493-.277.285-.437.646-.48,1.082-.035.435.064.778.297,1.026.233.241.549.344.945.309.405-.035.749-.2,1.033-.494.293-.295.456-.656.493-1.083ZM46.587,50.819c-.979.086-1.755-.16-2.328-.738-.573-.578-.82-1.352-.741-2.321.043-.534.106-.98.189-1.338.082-.366.218-.721.409-1.064.19-.351.443-.667.761-.948.317-.289.729-.574,1.235-.854.109-.058.307-.17.595-.333.296-.165.478-.266.548-.305.07-.039.194-.119.371-.24.185-.122.307-.219.366-.289.066-.079.147-.18.243-.303.095-.123.181-.261.257-.414l1.46.741c-.16.495-.431.902-.811,1.221-.373.31-.92.631-1.641.963-.518.233-.898.454-1.141.663-.235.2-.412.424-.529.67.453-.423.999-.662,1.638-.718.283-.025.568.016.855.121.286.105.545.266.776.483.239.208.422.485.55.833.137.347.186.73.149,1.149-.065.838-.388,1.531-.968,2.079-.572.548-1.32.862-2.242.943ZM45.684,48.891c.239.216.545.307.917.275.372-.033.686-.174.942-.425.263-.251.413-.554.447-.908.034-.354-.064-.639-.295-.855-.231-.216-.537-.308-.917-.275-.34.03-.65.167-.931.412-.273.236-.426.535-.46.897-.033.37.066.663.297.879ZM55.372,43.761l1.822-.159-.538,6.165-1.822.159.037-.419c-.427.429-1.017.676-1.77.742-.931.081-1.636-.195-2.116-.83-.481-.643-.675-1.413-.581-2.311.08-.847.399-1.597.953-2.249.562-.661,1.293-1.031,2.191-1.109.761-.067,1.351.155,1.771.665l.053-.653ZM52.538,48.157c.242.248.574.354.994.317.421-.037.778-.203,1.07-.497.293-.295.46-.668.502-1.121v-.012c.04-.46-.064-.814-.314-1.062-.242-.248-.573-.354-.994-.317s-.778.203-1.07.497c-.284.294-.447.671-.488,1.132-.041.46.059.815.301,1.063ZM62.416,43.145l1.821-.159-.537,6.165-1.822.159.197-2.22-2.064.181-.197,2.22-1.822.159.538-6.165,1.822-.159-.197,2.22,2.064-.181.197-2.22ZM71.22,42.374l-2.418,3.271,1.941,2.889-1.943.17-1.699-2.641-.244,2.811-1.821.159.538-6.165,1.821-.159-.217,2.552,1.941-2.703,2.101-.184ZM75.706,41.982l2.016-.176-2.593,6.161c-.446,1.059-.967,1.81-1.565,2.254-.589.443-1.299.677-2.13.7l.143-1.726c.437-.038.763-.136.978-.294.215-.157.41-.44.586-.847l-1.855-5.686,1.87-.164,1.078,3.65,1.472-3.873ZM78.428,44.803l-.096-3.051.213-2.466,2.186-.191-.213,2.466-.633,3.114-1.457.128ZM78.866,47.995c-.316.028-.577-.068-.784-.286-.207-.218-.296-.488-.266-.809.029-.321.159-.601.391-.842.24-.241.53-.377.87-.406.316-.028.577.068.784.286.207.218.296.488.266.809-.028.329-.158.613-.39.854-.233.232-.523.364-.871.394Z"/></svg>