<?xml version="1.0" encoding="utf-8"?>
<!-- Generator: Adobe Illustrator 28.4.1, SVG Export Plug-In . SVG Version: 6.00 Build 0)  -->
<svg version="1.1" id="Layer_1" xmlns="http://www.w3.org/2000/svg" xmlns:xlink="http://www.w3.org/1999/xlink" x="0px" y="0px"
	 viewBox="0 0 120 80" style="enable-background:new 0 0 120 80;" xml:space="preserve">
<style type="text/css">
	.st0{fill:#FFFFFF;}
	.st1{fill-rule:evenodd;clip-rule:evenodd;fill:#C10230;}
	.st2{fill:#C10230;}
</style>
<g>
	<path class="st0" d="M56.8,4c33.1-4.7,61.3,7.7,63.1,27.6c1.8,19.9-23.6,39.8-56.7,44.4C30.1,80.6,1.9,68.3,0.1,48.4
		C-1.7,28.5,23.7,8.7,56.8,4z"/>
	<path class="st1" d="M62.9,73.1c31.2-4.4,55.2-22.8,53.5-41.1C114.9,13.8,88.2,2.5,57,6.9c-0.4,0.1-0.8,0.1-1.3,0.2
		c29.3-3.7,54,7,55.6,24.2c1.6,17.5-21.3,35.1-51.2,39.2C30.8,74.7,5.6,64.2,3.4,47.2c0,0.2,0,0.5,0.1,0.7
		C5.1,66.2,31.7,77.5,62.9,73.1L62.9,73.1z"/>
	<path class="st2" d="M32.6,36c-0.1,0.7-0.3,1.3-0.9,1.7c0.6,0.4,0.9,1,0.8,1.8c0,0.7-0.3,1.3-0.8,1.8c-0.5,0.5-1.2,0.8-2.2,0.9
		l-3.4,0.3l0.7-8.5l3.2-0.3c0.8-0.1,1.4,0.1,1.9,0.5C32.4,34.7,32.7,35.3,32.6,36L32.6,36z M30,35.6l-1.3,0.1l-0.1,1.5l1.3-0.1
		c0.2,0,0.4-0.1,0.6-0.3c0.2-0.1,0.2-0.3,0.3-0.6c0-0.2,0-0.4-0.2-0.5C30.4,35.6,30.2,35.6,30,35.6L30,35.6z M30.4,40.1
		c0.2-0.2,0.3-0.4,0.3-0.6c0-0.2,0-0.4-0.2-0.6c-0.1-0.1-0.3-0.2-0.6-0.2l-1.5,0.1l-0.1,1.6l1.5-0.1C30,40.4,30.3,40.3,30.4,40.1z
		 M35.5,34.9c-0.2,0.2-0.5,0.4-0.8,0.4c-0.3,0-0.6-0.1-0.7-0.2c-0.2-0.2-0.3-0.4-0.2-0.7c0-0.3,0.1-0.6,0.4-0.8
		c0.2-0.2,0.5-0.4,0.8-0.4s0.5,0.1,0.7,0.3c0.2,0.2,0.3,0.4,0.3,0.7C35.9,34.4,35.8,34.6,35.5,34.9z M33.3,41.9l0.5-6.1l1.8-0.2
		l-0.5,6.1L33.3,41.9z M40.9,37c-0.1,0.6-0.3,1-0.7,1.4c0.5,0.3,0.8,0.8,0.7,1.4c-0.1,0.5-0.3,1-0.7,1.3c-0.4,0.3-1,0.5-1.8,0.6
		c-1.3,0.1-2.1-0.3-2.5-1.2l1.5-0.9c0.2,0.4,0.5,0.6,1.1,0.6c0.5,0,0.7-0.2,0.7-0.5c0-0.1,0-0.2-0.1-0.3c-0.1-0.1-0.2-0.1-0.4-0.1
		l-0.8,0.1l0.1-1.5l0.6-0.1c0.4,0,0.6-0.2,0.6-0.5c0-0.1,0-0.2-0.1-0.3c-0.1-0.1-0.2-0.1-0.4-0.1c-0.4,0-0.8,0.3-1,0.8l-1.4-0.7
		c0.6-1,1.4-1.5,2.5-1.6c0.7-0.1,1.3,0.1,1.7,0.4C40.8,36,40.9,36.5,40.9,37L40.9,37z M44.8,36.7c0.7-0.1,1.2,0.1,1.6,0.5
		c0.4,0.4,0.6,0.9,0.5,1.5c-0.1,1.3-1,2.1-2.5,2.2l-2.8,0.2l0.5-6.1L44,35l-0.2,1.8L44.8,36.7L44.8,36.7z M45.3,38.8
		c0-0.2,0-0.3-0.1-0.4c-0.1-0.1-0.2-0.1-0.4-0.1l-1,0.1l-0.1,1.1l1-0.1c0.2,0,0.3-0.1,0.4-0.2C45.2,39.1,45.2,38.9,45.3,38.8z
		 M54.6,34L54,40.1l-1.7,0.2l0.3-3.1l-1.5,2.2l-0.2,0l-1.1-2l-0.3,3.1l-1.7,0.2l0.5-6.1l1.7-0.2l1.1,2.2l1.6-2.5
		C52.7,34.2,54.6,34,54.6,34z M60.2,33.5l1.3-0.1L61,39.5l-1.7,0.2l0.3-3l-2.8,3.2L55.3,40l0.5-6.1l1.7-0.2l-0.3,3L60.2,33.5
		L60.2,33.5z M68.3,39c-0.9,0.1-1.7-0.2-2.3-0.8c-0.6-0.6-0.8-1.3-0.8-2.3c0.1-0.9,0.4-1.6,1-2.3s1.4-1,2.3-1.1
		c0.6-0.1,1.2,0,1.6,0.3c0.5,0.2,0.8,0.6,1.1,1l-1.6,1c-0.2-0.4-0.6-0.6-1.1-0.6c-0.4,0-0.7,0.2-1,0.5c-0.3,0.3-0.4,0.6-0.5,1
		c0,0.4,0.1,0.7,0.3,1c0.2,0.2,0.6,0.3,0.9,0.3c0.5,0,0.9-0.3,1.2-0.8l1.5,0.8c-0.3,0.5-0.6,0.9-1.1,1.2C69.4,38.8,68.9,39,68.3,39z
		 M77,33.9c0,0.5-0.3,1-0.7,1.2c0.5,0.3,0.7,0.7,0.7,1.3c-0.1,0.5-0.3,0.9-0.6,1.3c-0.4,0.3-0.9,0.5-1.6,0.6l-3.2,0.3l0.5-6.1l3-0.3
		c0.6-0.1,1.1,0.1,1.4,0.4C76.9,33,77.1,33.4,77,33.9L77,33.9z M74.9,33.7l-1.1,0.1l-0.1,0.8l1.1-0.1c0.4,0,0.5-0.2,0.6-0.5
		C75.4,33.8,75.2,33.7,74.9,33.7L74.9,33.7z M75.3,36.3c0-0.1,0-0.2-0.1-0.3c-0.1-0.1-0.2-0.1-0.4-0.1L73.5,36l-0.1,0.9l1.3-0.1
		C75.1,36.8,75.3,36.6,75.3,36.3L75.3,36.3z M80.8,37.9c-0.7,0.1-1.3-0.1-1.8-0.4c-0.5-0.3-0.8-0.7-1-1.2c-0.2-0.5-0.3-1-0.2-1.6
		c0.1-0.8,0.4-1.6,1-2.2c0.6-0.6,1.4-1,2.3-1.1c1-0.1,1.7,0.2,2.3,0.8c0.5,0.6,0.8,1.4,0.7,2.3c-0.1,0.8-0.4,1.5-1,2.2
		C82.4,37.5,81.7,37.8,80.8,37.9L80.8,37.9z M79.9,35.9c0.2,0.2,0.5,0.3,0.9,0.3c0.4,0,0.7-0.2,1-0.5c0.3-0.3,0.4-0.6,0.5-1.1
		c0-0.4-0.1-0.8-0.3-1c-0.2-0.2-0.5-0.4-0.9-0.3c-0.4,0-0.7,0.2-1,0.5c-0.3,0.3-0.4,0.6-0.5,1.1C79.6,35.3,79.7,35.6,79.9,35.9z
		 M90.9,30.7c0.6-0.1,1.2,0.1,1.7,0.4c0.5,0.3,0.8,0.7,1,1.2c0.2,0.5,0.3,1,0.2,1.6c-0.1,0.8-0.4,1.5-1,2.2c-0.6,0.6-1.3,1-2.2,1.1
		c-0.8,0.1-1.5-0.1-2-0.5c-0.5-0.4-0.8-0.9-1-1.6l-0.8,0.1l-0.2,2.2l-1.8,0.2l0.5-6.1l1.8-0.2L87,33.4l0.7-0.1
		c0.2-0.7,0.6-1.3,1.1-1.8C89.4,31,90.1,30.8,90.9,30.7L90.9,30.7z M92,33.8c0-0.4-0.1-0.8-0.3-1c-0.2-0.2-0.6-0.3-1-0.3
		c-0.4,0-0.7,0.2-1,0.5c-0.3,0.3-0.4,0.6-0.5,1.1c0,0.4,0.1,0.8,0.3,1c0.2,0.2,0.5,0.3,0.9,0.3c0.4,0,0.7-0.2,1-0.5
		C91.8,34.5,92,34.2,92,33.8L92,33.8z M45.8,53c-1,0.1-1.7-0.2-2.3-0.7S42.7,51,42.8,50c0-0.5,0.1-1,0.2-1.3c0.1-0.4,0.2-0.7,0.4-1
		c0.2-0.3,0.4-0.7,0.7-0.9c0.3-0.3,0.7-0.6,1.2-0.8c0.1-0.1,0.3-0.2,0.6-0.3c0.3-0.2,0.5-0.3,0.5-0.3s0.2-0.1,0.4-0.2
		c0.2-0.1,0.3-0.2,0.4-0.3c0.1-0.1,0.1-0.2,0.2-0.3c0.1-0.1,0.2-0.3,0.3-0.4l1.4,0.7c-0.2,0.5-0.4,0.9-0.8,1.2
		c-0.4,0.3-0.9,0.6-1.6,0.9c-0.5,0.2-0.9,0.4-1.1,0.7c-0.2,0.2-0.4,0.4-0.5,0.7c0.4-0.4,1-0.7,1.6-0.7c0.3,0,0.6,0,0.8,0.1
		c0.3,0.1,0.5,0.3,0.8,0.5c0.2,0.2,0.4,0.5,0.5,0.8c0.1,0.3,0.2,0.7,0.1,1.1c-0.1,0.8-0.4,1.5-1,2C47.5,52.6,46.7,52.9,45.8,53
		L45.8,53z M44.9,51.1c0.2,0.2,0.5,0.3,0.9,0.3c0.4,0,0.7-0.2,0.9-0.4c0.3-0.2,0.4-0.5,0.4-0.9s-0.1-0.6-0.3-0.8
		C46.7,49,46.4,48.9,46,49c-0.3,0-0.6,0.2-0.9,0.4c-0.3,0.2-0.4,0.5-0.5,0.9C44.6,50.6,44.7,50.9,44.9,51.1z M54.5,46.1l1.8-0.2
		L55.7,52l-1.8,0.2l0-0.4c-0.4,0.4-1,0.7-1.7,0.7c-0.9,0.1-1.6-0.2-2.1-0.8c-0.5-0.6-0.7-1.4-0.6-2.3c0.1-0.8,0.4-1.6,0.9-2.2
		c0.6-0.7,1.3-1,2.2-1.1c0.7-0.1,1.3,0.2,1.7,0.7L54.5,46.1L54.5,46.1z M51.7,50.4c0.2,0.2,0.6,0.3,1,0.3c0.4,0,0.8-0.2,1.1-0.5
		c0.3-0.3,0.5-0.7,0.5-1.1v0c0-0.5-0.1-0.8-0.3-1c-0.2-0.2-0.6-0.3-1-0.3c-0.4,0-0.8,0.2-1.1,0.5c-0.3,0.3-0.4,0.7-0.5,1.1
		C51.4,49.8,51.5,50.2,51.7,50.4L51.7,50.4z M61.4,45.5l1.8-0.2l-0.5,6.1l-1.8,0.2l0.2-2.2l-2,0.2l-0.2,2.2l-1.8,0.2l0.5-6.1
		l1.8-0.2l-0.2,2.2l2-0.2L61.4,45.5z M70.1,44.7l-2.4,3.2l1.9,2.8l-1.9,0.2L66,48.3l-0.2,2.8L64,51.3l0.5-6.1l1.8-0.2l-0.2,2.5
		l1.9-2.7C68,44.9,70.1,44.7,70.1,44.7z M74.5,44.3l2-0.2l-2.6,6.1c-0.4,1-1,1.8-1.5,2.2c-0.6,0.4-1.3,0.7-2.1,0.7l0.1-1.7
		c0.4,0,0.8-0.1,1-0.3c0.2-0.2,0.4-0.4,0.6-0.8l-1.8-5.6l1.8-0.2l1.1,3.6L74.5,44.3L74.5,44.3z M77.2,47.1l-0.1-3l0.2-2.4l2.2-0.2
		l-0.2,2.4L78.6,47C78.6,47,77.2,47.1,77.2,47.1z M77.6,50.2c-0.3,0-0.6-0.1-0.8-0.3c-0.2-0.2-0.3-0.5-0.3-0.8
		c0-0.3,0.2-0.6,0.4-0.8c0.2-0.2,0.5-0.4,0.9-0.4c0.3,0,0.6,0.1,0.8,0.3c0.2,0.2,0.3,0.5,0.3,0.8c0,0.3-0.2,0.6-0.4,0.8
		C78.2,50.1,77.9,50.2,77.6,50.2z"/>
</g>
</svg>
