<?xml version="1.0" encoding="utf-8"?>
<!-- Generator: Adobe Illustrator 28.4.1, SVG Export Plug-In . SVG Version: 6.00 Build 0)  -->
<svg version="1.1" id="layer" xmlns="http://www.w3.org/2000/svg" xmlns:xlink="http://www.w3.org/1999/xlink" x="0px" y="0px"
	 viewBox="0 0 542 360" style="enable-background:new 0 0 542 360;" xml:space="preserve">
<style type="text/css">
	.st0{fill:#C10230;}
</style>
<g id="Dr_Pepper_Square">
	<g id="back_logo">
		<g id="DDP_logo">
			<path class="st0" d="M375,250.3c1.6-0.6,3,0.5,3.1,2.3c0.1,1.9-1.1,3.9-2.7,4.5c-1.6,0.6-3-0.5-3.1-2.4
				C372.2,252.8,373.4,250.9,375,250.3"/>
			<path class="st0" d="M341.2,239.6l0.3,5.8c-0.9-0.4-2.3-0.3-3.7,0.1l-5,1.7c0,0.8,0.3,6.6,0.4,7.4c1.7-0.6,2.3-0.8,3.5-1.3
				c0.8-0.3,2.2-1.2,2.5-1.9l0.3,6.8c-0.6-0.2-1.4-0.7-2.8-0.3c-1.1,0.3-1.8,0.6-3.4,1.1l0.4,7.4l5.8-2c1.7-0.8,2.9-2,3.4-2.5
				l0.3,6.1l-16.2,5.9c0.4-1,0.9-2.6,0.8-5.3c0,0-0.6-13.4-1-19.9c-0.1-1.5-0.6-3-1.2-3.7L341.2,239.6L341.2,239.6z"/>
			<path class="st0" d="M345.6,261.2c1,0.9,4,1.2,5.7,0.7c1.2-0.5,1.9-1.5,1.9-2.3c-0.1-1.4-0.9-2.1-3.5-2.7
				c-2.8-0.6-4.5-1.7-4.7-4.5c-0.2-4.3,3.2-7.2,7.3-8.3c1.4-0.3,3.3-0.3,4.3-0.3l0.2,4.5c-0.9-0.5-3-0.7-4.3-0.2
				c-1.4,0.5-2.1,1.4-1.9,2.5c0.2,1,1.7,1.4,4.5,2.1c2.3,0.6,3.2,2,3.4,4.1c0.2,4.4-2.8,7.4-7.1,8.9c-1.5,0.6-4.9,1-5.7,0.9
				L345.6,261.2L345.6,261.2z"/>
			<path class="st0" d="M366.4,235.7c0,1.2-0.1,1,0.1,3.6l1.2-0.5c1.4-0.6,2.4-1.4,2.4-1.4l0.1,4.5l-3.6,1.2l0.6,9.8
				c0.1,2.1,1.4,2.7,3,2.3l0.1,3c-1.1,0.8-2.5,1.7-3.7,2.1c-1.5,0.6-2.8,0.3-3.8-0.6c-0.8-0.8-1.1-2.3-1.2-4.3l-0.6-10.1l-2.5,0.8
				l3.4-8.4L366.4,235.7L366.4,235.7z"/>
			<path class="st0" d="M390.6,251.2l-8.5,3c0,0,1.2-2.3,1-5l-0.8-14.2c-0.1-3-1.9-3.6-2.5-4.1c0.3-0.1,7.7-6.6,7.7-6.6l1.2,23
				C388.9,250.3,390.6,251.2,390.6,251.2"/>
			<path class="st0" d="M414.2,227.5c-1.2-1.1-1.9-2.2-2-4c-0.2-3.5,2.3-8.1,7.7-10.1c4.2-1.5,7.6-0.3,7.9,3.9
				c0.1,2.5-1.8,4.9-3.4,6.6c0,0,1.1,0.3,1.7,0.7c1.9,1.1,3,2.5,3.1,5c0.1,3.5-2.3,9.2-8.4,11.4c-4.7,1.7-8.8,0.1-9-4.3
				c-0.1-3.1,2.3-6.8,4.1-8.3C415.9,228.4,415,228.1,414.2,227.5 M417.1,235.4c0.1,2.1,1.8,2.8,3.4,2.2c1.7-0.6,3-2.4,3-4.1
				c-0.1-2-1.4-2.8-3.9-3.7C417.7,231.9,417,233.9,417.1,235.4 M422.6,218.4c-0.1-1.8-1.4-2.4-2.6-1.9c-1.5,0.6-2.4,1.9-2.3,3.5
				c0.1,1.6,1.7,2.5,3.2,3C422.2,221.1,422.7,219.6,422.6,218.4"/>
			<path class="st0" d="M394.3,234.6c-1.2-1.1-1.9-2.2-2-4c-0.2-3.5,2.3-8.1,7.7-10.1c4.2-1.5,7.6-0.3,7.8,3.9
				c0.1,2.5-1.8,4.9-3.4,6.6c0,0,1.2,0.3,1.7,0.7c1.9,1.1,3,2.5,3.1,5c0.2,3.5-2.3,9.2-8.3,11.4c-4.7,1.7-8.8,0.1-9-4.3
				c-0.1-3.1,2.3-6.8,4.1-8.3C395.9,235.5,395.1,235.2,394.3,234.6 M397.2,242.5c0.1,2.1,1.8,2.8,3.4,2.2c1.7-0.6,3-2.4,2.9-4.1
				c-0.1-2-1.4-2.8-3.9-3.7C397.9,239,397.1,241,397.2,242.5 M402.7,225.6c-0.1-1.8-1.4-2.4-2.6-1.9c-1.5,0.6-2.4,1.9-2.3,3.5
				c0.1,1.6,1.7,2.5,3.2,3C402.3,228.3,402.8,226.7,402.7,225.6"/>
			<path class="st0" d="M432.2,229.5c1.4,1.2,3.6,1.7,5.9,1c2.4-0.8,4-3.4,3.8-6.3c-0.1-2.8-1.7-3.7-3.7-2.9c-1.7,0.6-2.8,2.3-3.2,3
				l-2.5-0.8l-0.3-14l10.3-3.7c1.4-0.6,2.5-1.1,3.2-1.7l0.1,5.9l-9.3,3.3l0.1,5.3c0.9-0.9,2.4-1.9,4.1-2.5c5-1.8,7.4,1.6,7.6,5.3
				c0.3,5.7-4.1,11-9.2,12.9c-2.7,1-4.9,0.8-6.5,0.5L432.2,229.5L432.2,229.5z"/>
			<path class="st0" d="M69.3,140.2l7.7,146.2c0.6,12.1-0.6,22.9-6.3,35.2c4-1.4,43.1-15.3,52.5-18.8c-6.9-6.3-8.2-15.3-8.5-22.3
				l-3.4-65.9c12-1.4,30.6-9.4,41.8-17c31.8-21.8,40.4-46.3,38.1-72.4c-2.6-31-25.5-57.1-61.5-55.2c-10.9,0.6-23,3.7-36.2,9.2
				c-44.9,19-86.6,66.4-88.1,126.2c-0.9,35.2,14.3,71.5,37.9,89.9c7.1,5.5,12.9,7.9,14.9,8.4c-32.7-27.2-37.2-69.7-34.6-93.5
				c6.3-58.7,49.1-94.4,78.1-103.5c27-8.4,51.6,0.3,53.1,30.3c1.5,29.3-15.3,48.1-31.6,55.8c-4.5,2.1-9.3,3.6-12.8,4.1l-4.3-81.4
				C92.9,120,74.2,133.7,69.3,140.2"/>
			<path class="st0" d="M357.1,171.9c0.5,25.2,17.5,42.6,41.4,35.8c15.9-4.5,31-20.5,36.6-32.6c0.4,7.8-1.9,14.1-4.1,18.3
				c2.7-1,27.6-10.1,31.4-11.4c-3.7-4.7-4.6-11.7-5-18.7c-0.1-2.3-0.8-13-1.3-25c0.1-12.3,4.1-19.3,7.7-21.6
				c4.1-2.6,9.9-1.7,11.2,3.6c0.8,3.2-0.2,7.6-3.9,10.1c11.8,3.2,23.9-5.1,22.7-20.4c-1-13.8-13-19.4-22.6-16.4
				c-7.4,2.3-14.1,9-16.5,18.4c-0.3-6.7-0.6-11.2-0.6-11.2l-28.6,10.5c2.7,2.1,5,6.2,5.4,13l1.6,30.5c-3.7,14.7-17.4,31.1-28.9,33.7
				c-11.1,2.5-18.5-2-22.1-10.5c7.7,0.8,13.8,0.1,19.9-2.4c12-4.8,22.2-18.5,20.6-35.1c-1.6-16.3-15.6-24-31.6-18.9
				C368,128.9,356.7,149.6,357.1,171.9 M390.2,136.1c7.7-1.5,9.9,5.9,9.9,10.7c0.1,6.8-2.6,14-10,18c-3.4,1.9-7.4,2.2-10.6,2.1
				C377.2,147.5,384.2,137.2,390.2,136.1"/>
			<path class="st0" d="M252.9,257c16.3-10.8,24.3-32.9,23.2-54.4c-1.4-25.5-17.6-32-29.1-28.1c-7.2,2.5-14,5.8-18.6,14.4l-0.3-7
				l-29.3,10.7c2.7,2.1,5,6.2,5.4,13c0.1,2.5,0.9,17.3,1.7,33.8c-4,14.1-18.2,28.1-29.4,30.5c-11.1,2.5-18.5-2-22.1-10.5
				c7.7,0.8,13.8,0,19.9-2.4c12-4.8,22.2-18.5,20.6-35.1c-1.6-16.3-15.6-24-31.6-18.9c-22.8,7.2-34.3,28-33.8,50.3
				c0.5,25.3,17.5,42.5,41.4,35.8c15.6-4.4,31.3-17.7,36-28.5c1.5,29.6,1.7,33.6,1.7,34c0.3,4.6-0.6,16.7-3.5,22.7l33.4-12.2
				c-3.7-5.5-4.7-12.3-5-18.7l-1.1-21.8C239.3,263.2,247.2,260.7,252.9,257 M162.6,217.5c7.7-1.5,9.9,5.9,9.9,10.7
				c0.1,6.8-2.6,14-10,18c-3.4,1.9-7.4,2.2-10.6,2.1C149.7,229,156.6,218.7,162.6,217.5 M239.2,197c7.7-1.2,11.9,5.2,12.4,14.5
				c0.6,12.1-2.2,24.7-9.5,32.3c-2.6,2.8-7,5-10.5,5.9l-2.4-46.2C232.4,200.4,235.2,197.7,239.2,197"/>
			<path class="st0" d="M329.9,229.1c16.2-10.8,24.5-31.2,23.2-53.3c-1.6-26.9-16.7-32.9-29.1-28.9c-9,3-13.5,9.1-18,16l-0.5-8.9
				l-29.3,10.7c2.7,2.1,4.9,6.2,5.2,13l4.7,89.5c0.4,8.1-1,17.4-3.4,22.4c0,0,29.4-10.7,33.2-12.1c-3.7-5.5-4.7-12.3-5-18.7
				l-1.2-22.1C316.8,235.3,324.3,232.8,329.9,229.1 M317.2,169.1c7.7-1.2,11.3,6.2,11.8,15.6c0.6,12.1-1.7,23.7-9.6,31.6
				c-2.7,2.7-6.8,4.5-10.3,5.6l-2.4-46.1C309.6,172.7,313.2,169.8,317.2,169.1"/>
			<path class="st0" d="M310.4,73.4l2.4,45.5c0.3,6.6,0.7,14.8-2.7,23.7c2.7-1,27.6-10.1,31.4-11.4c-3.7-4.7-4.7-11.7-5-18.7
				c-0.1-2.3-0.6-13-1.2-24.9c-0.7-13.4,3.7-18.7,7.7-21.6c3.8-2.9,9.9-1.7,11.2,3.6c0.8,3.2-0.2,7.6-3.8,10.1
				c11.8,3.2,24-5.1,22.8-20.4c-1-13.8-13-19.4-22.6-16.4c-7.4,2.3-14.1,9-16.5,18.4c-0.3-6.7-0.6-11.2-0.6-11.2L305,60.5
				C307.7,62.6,310.1,66.7,310.4,73.4"/>
			<path class="st0" d="M197.3,74.5c0.5,7.7,4,77.1,4.2,80.2c0.4,6.8,1.7,16.4-4.5,28.1c5.6-1.9,44.3-15.5,54.4-19.6
				c28.1-11.4,50.1-38.9,48.1-80.4c-2.1-43.5-31.9-56.9-64.8-46c-8.8,2.9-39.8,14.5-46.7,16.7C193.1,56.9,196.6,62.7,197.3,74.5
				 M248.1,54.7c14.1,3.3,19.2,20.3,19.9,36.9c0.7,18.9-5.5,41.6-20.2,52.5c-4.4,3.2-10.6,6.1-15.1,7.4c-0.2-3.4-4.5-84.4-4.9-91.6
				C233,56.6,241,53,248.1,54.7"/>
			<path class="st0" d="M483.8,176.2c-1.4,2.2-3.1,3.7-5.4,4.5c-2.3,0.8-4.4,0.8-6.3-0.3c-1.9-1.1-3-2.8-3.4-5.2
				c-0.4-2.5,0.1-4.9,1.5-7.2c1.4-2.1,3.1-3.6,5.2-4.3c2.3-0.8,4.3-0.7,6.2,0.4s3,2.8,3.4,5.2C485.6,171.6,485.1,174,483.8,176.2
				L483.8,176.2z M471.3,169c-1,1.9-1.4,3.7-1.1,5.7c0.3,2,1.2,3.4,2.8,4.3c1.6,0.9,3.2,1,5.1,0.3s3.3-1.9,4.4-3.8s1.4-3.8,1.1-5.7
				c-0.3-1.9-1.2-3.3-2.8-4.2c-1.6-1-3.3-1-5.2-0.4C473.9,165.8,472.4,167.1,471.3,169z M474.2,178.2l-1.6-9.5
				c0.6-0.2,1.4-0.6,2.5-0.9c1.1-0.4,1.7-0.6,1.9-0.7c0.8-0.2,1.4-0.3,1.9-0.1c0.9,0.2,1.4,0.8,1.6,1.8c0.1,0.8,0,1.4-0.3,2
				s-0.8,0.9-1.4,1.2c0.6-0.1,1.1-0.1,1.4,0.1c0.6,0.2,1,0.8,1.2,1.8l0.1,0.8c0,0.1,0.1,0.2,0.1,0.3s0.1,0.2,0.1,0.3l0.1,0.3
				l-2.3,0.8c-0.1-0.3-0.3-0.7-0.3-1.2c-0.1-0.6-0.2-1-0.3-1.1c-0.2-0.3-0.5-0.5-0.8-0.5c-0.2,0-0.5,0-0.8,0.1l-0.6,0.1l-0.6,0.2
				l0.6,3.4L474.2,178.2L474.2,178.2z M477.2,169c-0.3,0-0.8,0.1-1.4,0.3l-0.6,0.2l0.5,2.8l1-0.3c0.6-0.2,1-0.5,1.2-0.8
				s0.3-0.8,0.3-1.3C478,169.3,477.7,169.1,477.2,169L477.2,169z"/>
			<path class="st0" d="M529.4,92.6c-13.1-33.3-37.8-59.5-78.5-75.5c-10.8-4.3-26.9-8.6-36.9-9.3c45.7,15,80.2,42,94.8,79.1
				c33.6,85.5-51.1,191.9-189.3,237.6c-69.5,23-139.2,26.4-195.7,13.2c5.9,4.2,20.2,7.5,30.9,9.6c54.6,10.5,120.1,4.7,185.5-17
				C478.2,284.4,563,178,529.4,92.6"/>
		</g>
	</g>
</g>
</svg>
