<?xml version="1.0" encoding="UTF-8"?><svg id="Capa_1" xmlns="http://www.w3.org/2000/svg" viewBox="0 0 512 512"><defs><style>.cls-1{fill:#fff;stroke-width:0px;}</style></defs><path class="cls-1" d="M256,46.126c68.355,0,76.452.261,103.447,1.492,27.894,1.273,56.643,7.639,76.968,27.963,20.519,20.518,26.689,48.986,27.966,76.972,1.232,26.995,1.492,35.091,1.492,103.446s-.261,76.452-1.492,103.446c-1.266,27.752-7.759,56.764-27.963,76.969-20.529,20.529-48.961,26.688-76.973,27.967-26.991,1.232-35.086,1.492-103.446,1.492s-76.455-.261-103.447-1.492c-27.537-1.257-56.929-7.925-76.968-27.963-20.41-20.41-26.697-49.143-27.967-76.973-1.232-26.995-1.492-35.091-1.492-103.446s.261-76.452,1.492-103.447c1.262-27.652,7.837-56.841,27.963-76.968,20.479-20.48,49.04-26.692,76.972-27.967,26.996-1.23,35.093-1.491,103.448-1.491M256,0c-69.525,0-78.243.294-105.549,1.54-39.588,1.807-78.869,12.813-107.484,41.426C14.245,71.688,3.345,110.893,1.54,150.452c-1.246,27.305-1.54,36.022-1.54,105.548s.294,78.243,1.54,105.549c1.804,39.525,12.87,78.927,41.426,107.483,28.687,28.688,67.972,39.624,107.485,41.427,27.306,1.247,36.024,1.541,105.549,1.541s78.243-.294,105.549-1.54c39.545-1.804,78.901-12.844,107.484-41.426,28.733-28.732,39.622-67.918,41.427-107.485,1.246-27.306,1.54-36.023,1.54-105.549s-.294-78.243-1.54-105.549c-1.805-39.566-12.833-78.889-41.426-107.483C440.388,14.321,400.991,3.34,361.548,1.54c-27.305-1.246-36.022-1.54-105.548-1.54Z"/><path class="cls-1" d="M256,124.54c-72.603,0-131.46,58.856-131.46,131.46s58.857,131.459,131.46,131.459,131.46-58.856,131.46-131.459-58.857-131.46-131.46-131.46ZM256,341.333c-47.128,0-85.333-38.205-85.333-85.333s38.205-85.333,85.333-85.333,85.333,38.205,85.333,85.333-38.205,85.333-85.333,85.333Z"/><circle class="cls-1" cx="392.654" cy="119.346" r="30.72"/></svg>