<?xml version="1.0" encoding="UTF-8"?><svg id="Layer_1" xmlns="http://www.w3.org/2000/svg" viewBox="0 0 160 160"><defs><style>.cls-1{fill:none;stroke:#e88597;stroke-linecap:round;stroke-linejoin:round;stroke-width:3px;}.cls-2{fill:#e88597;stroke-width:0px;}</style></defs><path class="cls-2" d="M38.544,82.535c-.81.071-1.481-.178-2.013-.747-.533-.582-.763-1.298-.69-2.148.074-.836.419-1.556,1.036-2.158.617-.603,1.363-.942,2.24-1.019.81-.071,1.474.172,1.991.729.531.556.759,1.252.685,2.088-.072.863-.409,1.602-1.011,2.217-.602.615-1.348.961-2.238,1.039ZM57.355,70.851l-.27,3.115-4.782.418-.961,11.046-3.188.279,1.23-14.161,7.97-.697ZM60.494,84.911c-1.169.102-2.17-.098-3.004-.6-.822-.517-1.402-1.182-1.741-1.996-.327-.828-.438-1.715-.333-2.661.159-1.392.729-2.6,1.711-3.623.98-1.036,2.26-1.623,3.841-1.762,1.594-.139,2.847.333,3.758,1.418.91,1.071,1.301,2.329,1.173,3.772-.122,1.363-.691,2.583-1.707,3.663-1.018,1.066-2.25,1.663-3.698,1.789ZM58.909,81.476c.369.396.879.565,1.53.508.651-.057,1.21-.32,1.678-.789.466-.482.729-1.081.786-1.795.071-.715-.091-1.27-.487-1.664-.384-.408-.901-.584-1.552-.527-.651.057-1.203.326-1.656.807-.441.467-.697,1.058-.768,1.774-.058.714.098,1.276.469,1.686ZM73.856,73.142c1.422-.124,2.546.333,3.373,1.371.825,1.025,1.189,2.272,1.09,3.739-.081,1.372-.569,2.606-1.463,3.702-.882,1.094-2.059,1.706-3.534,1.835-1.328.116-2.346-.27-3.053-1.158l-.449,5.199-2.989.261,1.23-14.161,2.989-.261-.066.849c.745-.815,1.702-1.273,2.871-1.375ZM74.512,80.171c.466-.482.733-1.101.801-1.857.067-.756-.097-1.337-.494-1.744-.384-.408-.921-.582-1.612-.522-.677.059-1.257.324-1.737.794-.481.47-.763,1.064-.848,1.781l-.024.183c-.03.725.153,1.285.548,1.679.396.394.939.56,1.63.5.691-.06,1.269-.332,1.736-.814ZM88.156,72.172l-.247,2.913-2.968.26-.635,7.203-2.989.262.635-7.203-3.008.263.247-2.913,8.965-.784ZM96.289,71.46l2.989-.261-.882,10.115-2.988.262.06-.688c-.701.704-1.67,1.11-2.905,1.218-1.528.134-2.685-.32-3.472-1.363-.788-1.055-1.106-2.319-.954-3.791.133-1.39.654-2.62,1.564-3.69.923-1.084,2.121-1.691,3.595-1.82,1.249-.109,2.218.254,2.906,1.091l.087-1.072ZM91.64,78.673c.397.407.941.58,1.632.52.69-.061,1.276-.333,1.755-.816.48-.484.754-1.097.823-1.839l-.002-.02c.068-.755-.103-1.336-.513-1.742-.397-.407-.941-.58-1.632-.52-.691.06-1.276.332-1.755.816-.467.482-.734,1.101-.802,1.857-.067.755.097,1.337.494,1.744ZM103.28,69.664l.212-2.629,5.977-.523-.212,2.628-5.977.523ZM108.643,70.379l2.192-.192-.882,10.115-2.909.255.431-4.936-4.695,5.31-2.191.192.881-10.115,2.909-.255-.431,4.936,4.695-5.309ZM113.085,75.01l-.157-5.005.349-4.046,3.586-.314-.348,4.046-1.039,5.11-2.391.209ZM113.804,80.247c-.518.045-.946-.111-1.286-.47-.339-.358-.485-.801-.437-1.327.048-.526.262-.987.642-1.381.394-.396.87-.618,1.428-.667.518-.045.946.111,1.285.47.34.358.485.801.438,1.327-.047.539-.26,1.007-.641,1.401-.381.381-.858.597-1.429.647ZM125.75,74.906c-.811.071-1.481-.178-2.013-.747-.533-.583-.763-1.299-.69-2.148.074-.836.419-1.556,1.036-2.158.616-.603,1.363-.942,2.24-1.019.81-.071,1.474.172,1.991.729.53.556.758,1.252.684,2.088-.071.863-.408,1.602-1.01,2.216-.602.615-1.348.961-2.238,1.039Z"/><path class="cls-1" d="M77.723,99.064l-1.993,13.992M82.992,108.756l-7.372,4.993-5.468-7.027"/></svg>