<?xml version="1.0" encoding="UTF-8"?><svg id="Capa_1" xmlns="http://www.w3.org/2000/svg" viewBox="0 0 512 512"><defs><style>.cls-1{fill:#fff;stroke-width:0px;}</style></defs><path class="cls-1" d="M501.3,131.96c-5.89-22.17-23.24-39.63-45.26-45.56-39.93-10.76-200.04-10.76-200.04-10.76,0,0-160.11,0-200.04,10.76-22.02,5.93-39.37,23.39-45.26,45.56C0,172.15,0,256,0,256c0,0,0,83.85,10.7,124.04,5.89,22.17,23.24,39.63,45.26,45.56,39.93,10.76,200.04,10.76,200.04,10.76,0,0,160.11,0,200.04-10.76,22.02-5.93,39.37-23.39,45.26-45.56,10.7-40.19,10.7-124.04,10.7-124.04,0,0,0-83.85-10.7-124.04ZM203.64,332.13v-152.26l133.81,76.13-133.81,76.13Z"/></svg>